<?xml version="1.0" encoding="utf-8"?>
<!-- Generator: Adobe Illustrator 28.4.1, SVG Export Plug-In . SVG Version: 6.00 Build 0)  -->
<svg version="1.1" id="Layer_1" xmlns="http://www.w3.org/2000/svg" xmlns:xlink="http://www.w3.org/1999/xlink" x="0px" y="0px"
	 viewBox="0 0 16 16" style="enable-background:new 0 0 16 16;" xml:space="preserve">
<style type="text/css">
	.st0{fill:#F34F34;}
</style>
<path class="st0" d="M5.3,11.7c-0.1-0.7-0.9-0.8-0.9-0.8C3.7,10.5,3.9,10,3.9,10c0.2-0.4,0.3-1.2,0.3-1.2c0,0.4,0,1.3,0,1.3
	c0.2,0.6,0.7,0.6,0.7,0.6c0.9,0.2,1.1,0.4,1.1,0.4c0.2,0.3,0.3,0.3,0.3,0.3c-0.3-0.5-0.3-0.8-0.3-0.8c0.2,0,0.3,0.4,0.3,0.4
	c0.3,0.8,0.4,0.7,0.4,0.7c0.8,0.2,1.4,0,1.7-0.3C8.8,10.9,9.2,11,9.2,11c0.4,0.2,0.3,0.4,0.4,0.6c0,0.1,0.2,0.1,0.2,0.1
	s-0.1,0-0.1,0.1c0,0-0.1,0.1-0.1,0.1c0,0.5,0.2,0.6,0.2,0.6c0.2,0.2,0.8,0.2,0.9,0.1c0.1-0.1,0-0.4,0-0.4c0-0.2-0.2-0.5-0.2-0.5
	c0.4,0,0.4,0.5,0.4,0.5c0.1-0.6,0.4-0.6,0.4-0.6c0.2-0.3,0.5,0,0.5,0c0.1,0.3,0.4,0.4,0.4,0.4c0.3,0.1,0.4-0.1,0.4-0.1
	c0.1-0.3-0.1-0.6-0.1-0.6c0-0.1,0.1-0.1,0.1-0.1c0.1-0.4,0.3-0.4,0.3-0.4c-0.1,0.4-0.2,0.5-0.2,0.5c0.1,0.2,0.2,0.1,0.2,0.1
	c0.2,0,0.2-0.4,0.1-0.6c-0.1-0.2,0-0.2,0-0.2c0.1-0.3-0.2-0.8-0.3-1C12.6,9.3,13.1,9,13.1,9c-0.1-0.2-0.3-0.4-0.4-0.5
	c-0.1-0.1-0.2-0.1-0.3-0.1c-0.3,0-0.4-0.1-0.6-0.2c-0.1,0-0.2-0.1-0.2-0.2c-0.2-0.2-0.2-0.3-0.2-0.3c-0.1-0.2-0.4-0.4-0.6-0.5
	c-0.1-0.1-0.2-0.1-0.3,0c-0.1,0.1-0.2,0.1-0.2,0.1c0,0.4-0.2,0.6-0.2,0.8c0.2-0.3,0.4-0.4,0.4-0.4C10.6,8.5,9.7,9,9.7,9
	C9.5,9.2,9.3,9.4,9.3,9.4C9.1,9.7,8.2,9.5,8.2,9.5C7.8,9.4,7.5,9.5,7.5,9.5C7,9.7,6.7,9.5,6.4,9.2C6.1,9,6.1,8.5,6.3,8
	C6.5,7.6,7,7,7.1,6.7c0.1-0.4,0.5-0.6,0.5-0.6c0.7-0.5,1.5-0.2,1.5-0.2C10,6.2,9.8,7.3,9.8,7.3C9.6,7.2,9.5,6.8,9.5,6.8
	c-0.1,0.2,0,0.5,0,0.5C9.2,7.1,9.2,6.7,9.2,6.7c-0.1,1,0.3,1,0.3,1c0.6,0.2,0.8-0.5,0.8-0.5C10.4,7,10.6,7,10.6,7
	c0.4-0.1,0.6,0.1,0.6,0.1c-0.1-1.7,1.1-2.2,1.1-2.2c0.5-0.1,0.9,0.5,0.9,0.5c0-0.5-0.2-0.7-0.2-0.8c0,0,0,0-0.1-0.1
	c-0.6-0.4-0.9-0.6-1.1-1.1c-0.5-0.9-1.8-1.5-2.9-1.5C7.9,1.8,7,2,6.2,2.4C4.8,3.2,4.2,4,4.2,4C2.5,5.7,2,7.5,2.2,8.7
	c0.2,1.3,1,1.9,1.7,2.6C4.4,11.7,5.3,11.7,5.3,11.7L5.3,11.7z M12,11.7c0,0-0.2-0.1-0.1-0.4c0,0,0-0.1,0.4-0.1
	C12.3,11.2,12,11.5,12,11.7L12,11.7z M11,7.9c0.1-0.1,0.2,0.1,0.2,0.2c0,0,0,0.1-0.1,0.1C10.9,8,11,7.9,11,7.9z M10.8,9.4
	c-0.1-1,0.3-1,0.3-1c0.3-0.2,1,0.8,1.3,1.3c0.2,0.4,0.2,0.7,0.2,0.8c0,0.1-0.1,0.1-0.1,0c-0.1-0.1-0.2-0.1-0.2-0.1
	c-0.1,0-0.3-0.1-0.3-0.2c0,0,0,0,0,0c-0.1-0.2-0.2,0-0.4,0.5c-0.1,0.3-0.3,0.5-0.3,0.5c-0.2,0.1-0.3,0.1-0.3,0.1
	C10.2,11,10.8,9.4,10.8,9.4L10.8,9.4z M9,9.9c0.4-0.3,0.5-0.4,0.5-0.4S9.4,9.8,9.3,10c-0.1,0.3,0.1,0.3,0.1,0.3l0.5,0.1
	c0,0-0.5,0.2-0.9,0.1C8.7,10.5,8.9,10,9,9.9z"/>
<path class="st0" d="M13.4,8.2c-0.1-0.2,0-0.3,0-0.3l-0.1,0.1c-0.4,0.2-1,0-1,0s0,0.4,0.4,0.5c0.2,0,0.3,0.1,0.4,0.1
	c-0.2-0.3,0.2-0.2,0.3-0.1c0.1,0.1,0.1,0.2,0.1,0.3l0.1-0.2C13.6,8.3,13.5,8.4,13.4,8.2z"/>
<path class="st0" d="M11.4,11.9c0,0-0.3-0.2-0.3,0.8c0,0,0.3,0.2,0.5-0.1c0-0.1,0-0.1,0-0.2C11.6,12.2,11.6,12,11.4,11.9L11.4,11.9z
	"/>
<path class="st0" d="M13.2,4c0,0,0.9-0.8,0.9-0.8l1.1-0.3l0.3-0.7l-0.4-0.5l-0.8,0.2l-0.4,1l-1,0.9C12.8,3.8,13.2,4,13.2,4L13.2,4z
	 M14.8,2.6c-0.1-0.2-0.3-0.5-0.3-0.5l0.6,0.6c0,0-0.4,0.1-0.9,0.3L14.8,2.6L14.8,2.6z"/>
<path class="st0" d="M2.8,11.9l0.4-0.4l-0.2-0.2l-1,0.8C1.1,12.1,0.8,12,0.8,12l-0.3,0.2c0,0,0,0.5,0,0.6c0,0,0.8,0.4,0.8,0.4l0.4,0
	c0,0-0.2-0.3-0.5-0.4c-0.1,0-0.2,0-0.2,0c-0.1-0.1-0.1-0.2-0.1-0.3l0.1-0.1c0,0.1,0.3,0.3,0.3,0.3c0.5,0.1,1,0.8,1,0.8l-0.6,0
	c0,0.3,0.2,0.8,0.2,0.8c0.1,0.2,0.4,0.2,0.4,0.2c0.1-0.1,0.1-0.5,0.1-0.5c0.2,0.2,0.1,0.3,0.1,0.3s0.3-0.2,0.3-0.3
	c0-0.1,0-1.1,0-1.1l1-0.8l-0.4-0.3C2.9,12,2.8,11.9,2.8,11.9L2.8,11.9z"/>
</svg>
