<svg width="40" height="40" fill="none" xmlns="http://www.w3.org/2000/svg"><g clip-path="url(#a)" fill="#333"><path d="m12.37 34.387-.035-.016.996-2.274-1.528-.669-2.177 4.974 1.42.622 2.31-1.698.036.016-.995 2.273 1.527.67 2.178-4.974-1.422-.622-2.31 1.698zM19.728 35.933l-1.27-.154.247-2.04-1.655-.202-.655 5.39 1.656.201.248-2.04 1.27.154-.248 2.04 1.656.201.654-5.389-1.655-.2-.248 2.04zM29.662 32.244l-1.707.517-.48 2.293-.074.023-.596-1.967-1.596.483.596 1.967-.074.023-1.673-1.641-1.707.518 2.25 2.073-.824 3.167 1.707-.517.554-2.315.149-.046.596 1.967 1.596-.483-.596-1.967.149-.045 1.746 1.619 1.707-.518-2.442-2.177.72-2.974zM34.051 33.23l-.557-.541 1.213-1.253-.891-.864-1.214 1.254-.557-.539 1.699-1.756-.947-.916-2.859 2.954 3.9 3.775 2.914-3.01-.948-.917-1.753 1.812zM34.094 25.254l1.95.65-.404 1.215-1.95-.65-.527 1.581 5.15 1.717.527-1.582-1.949-.65.405-1.214 1.949.65.527-1.582-5.15-1.717-.528 1.582zM38.609 20.93l-.776.035-.077-1.742-1.24.055.078 1.743-.775.035-.109-2.44-1.317.058.184 4.107L40 22.538l-.188-4.184-1.316.058.113 2.519zM33.475 13.44l-.458 1.176 1.322 3.397 5.06-1.97-.605-1.553-1.337.52-.718-1.842-1.133-.558-2.132.83h.001zm2.36 1.037.393 1.012-1.265.492-.394-1.012.089-.2.975-.38.201.088zM5.842 24.201l-.275-1.644-4.055.681-.211-1.262L0 22.194l.7 4.169 1.3-.219-.211-1.261 4.053-.682zM4.476 21.027l1.069-.86.412-2.761-.772-1.134-3.681-.55-1.07.86-.412 2.76.772 1.135 3.682.55zm-2.857-3.446.176-.131 2.608.39.131.176-.172 1.15-.177.131-2.608-.39-.13-.176.171-1.15zM8.03 12.574l-.346-1.384-1.122-.615-.86.28-.136-.56-1.054-.577-1.353.452L1.5 13.197l4.761 2.609 1.77-3.23v-.002zm-3.927.148-.646-.354.484-.884.21-.062.34.186.058.297-.448.817h.002zm1.089.596.521-.952.387-.142.34.186.062.21-.596 1.089-.714-.392v.001zM9.747 10.528 9.29 9.484l1.162-1.027.98.583 1.279-1.13-4.903-2.913-1.627 1.438 2.286 5.224 1.28-1.13zm-.488-2.777-.524.463-.534-1.132 1.058.67zM14.515 7.242l-.548-1.326 1.828-.755.534-1.144-.873-2.114-1.186-.434L10.9 2.86l2.073 5.018 1.542-.636zm-.566-4.214.203.084.4.968-.084.203-1.004.415-.517-1.255 1.003-.415zM19.295 5.92l1.272-2.569.038-.003.16 2.477 1.664-.107L22.08.3l-1.547.1-1.272 2.57-.039.002-.16-2.477-1.665.108.35 5.418 1.55-.1zM27.705 8.655l1.552.611.91-2.309-.542-.213 1.507-3.825-1.551-.61-1.508 3.824-.685-.27 1.507-3.825-1.551-.611-1.508 3.824-.685-.27 1.507-3.824-1.551-.612-1.99 5.052 5.014 1.976-.426 1.082zM22.827 28.628c.086.284.36.305.36.305s-.12.065-.22.212a.812.812 0 0 0-.128.321c-.089.994.529 1.3.529 1.3.415.365 1.808.406 1.926.172.117-.235.078-.901.078-.901.02-.51-.45-1.018-.45-1.018.822.02.861 1.136.861 1.136.235-1.332.842-1.253.842-1.253.47-.569 1.018-.06 1.018-.06.274.646.783.98.783.98.607.177.92-.293.92-.293.118-.705-.137-1.214-.137-1.214.059-.294.235-.196.235-.196.117-.823.626-.882.626-.882-.157.901-.353 1.097-.353 1.097.274.352.53.198.53.198.352-.055.41-.962.294-1.314-.117-.352 0-.45 0-.45.192-.75-.366-1.809-.58-2.283-.491-1.079.58-1.672.58-1.672-.13-.48-.558-.813-.883-1.003a1.922 1.922 0 0 0-.634-.23 4.897 4.897 0 0 1-1.223-.372 1.4 1.4 0 0 1-.459-.35c-.342-.393-.5-.747-.5-.747-.288-.387-.861-.814-1.24-1.072a.578.578 0 0 0-.685.025c-.194.154-.348.264-.348.264 0 .81-.35 1.425-.535 1.693.507-.648.966-.87.966-.87.098 1.487-1.977 2.642-1.977 2.642-.333.411-.822.881-.822.881-.431.724-2.37.274-2.37.274-.88-.313-1.526-.137-1.526-.137-1.175.606-1.782.02-2.428-.51-.645-.528-.724-1.723-.274-2.622.45-.901 1.547-2.232 1.86-3.054.313-.823 1.126-1.273 1.126-1.273 1.542-1.093 3.24-.529 3.24-.529 1.84.881 1.502 3.22 1.502 3.22-.442-.248-.739-1.203-.739-1.203-.19.544.097 1.083.097 1.083-.598-.287-.684-1.123-.684-1.123-.235 2.193.763 2.232.763 2.232 1.39.411 1.703-1.175 1.703-1.175.138-.47.53-.47.53-.47.86-.254 1.213.138 1.213.138-.137-3.837 2.389-4.954 2.389-4.954 1.096-.274 1.938 1.018 1.938 1.018-.088-1.123-.382-1.616-.526-1.795a.596.596 0 0 0-.136-.12c-1.425-.936-1.92-1.415-2.452-2.353-1.166-2.06-4.011-3.227-6.294-3.342-1.978-.101-4.07.272-5.783 1.3-2.917 1.75-4.293 3.376-4.293 3.376-3.75 3.835-4.918 7.71-4.542 10.503.375 2.792 2.167 4.208 3.792 5.667 1.08.97 3.22.841 3.22.841-.21-1.607-1.92-1.796-2.04-1.857-1.573-.778-1.171-1.843-1.171-1.843.49-.98.561-2.656.561-2.656-.02.96-.091 2.754-.091 2.754.391 1.409 1.507 1.273 1.507 1.273 2.016.391 2.428.979 2.428.979.332.568.743.665.743.665-.568-.998-.704-1.743-.704-1.743.391.079.724.784.724.784.568 1.762.862 1.51.862 1.51 1.742.513 3.017-.09 3.783-.669 1.084-.82 1.905-.661 1.905-.661.862.332.639.921.792 1.425zm5.454.148s-.498-.172-.194-.8c0 0 .105-.291.78-.26 0 0-.715.584-.585 1.06zm-2.217-8.437c.278-.218.46.136.546.367.027.077-.046.153-.125.13-.645-.186-.421-.497-.421-.497zm-.618 3.286c-.173-2.208.58-2.15.58-2.15.76-.419 2.294 1.658 2.84 2.868.353.782.434 1.439.446 1.806.004.112-.125.174-.214.106a1.136 1.136 0 0 0-.548-.228.81.81 0 0 1-.65-.544 1.416 1.416 0 0 0-.03-.082c-.194-.498-.543.009-.844.996-.194.639-.705 1.19-.705 1.19-.52.302-.724.218-.724.218-1.363-.541-.15-4.178-.15-4.178v-.002zm-3.954 2.495c-.572-.138-.127-1.116.16-1.327.864-.636 1.076-.938 1.076-.938s-.32.572-.595 1.149c-.274.577.16.704.16.704l1.076.229s-.998.393-1.877.183z"/><path d="M31.267 20.942c-.123-.494 0-.765 0-.765l-.296.163c-.864.435-2.198 0-2.198 0s.093.973.847 1.08c.365.053.664.165.906.298-.461-.607.45-.47.637-.088.133.272.199.508.224.71l.226-.557c.074-.469-.222-.346-.346-.84zM26.848 29.215s-.716-.37-.667 1.655c0 0 .684.373 1.103-.326a.68.68 0 0 0 .084-.45c-.043-.283-.166-.74-.52-.878v-.001zM30.907 11.88c.044 0 2.077-1.67 2.077-1.67l2.383-.56.73-1.586-.947-1.169-1.72.404-1.01 2.214-2.289 1.88s.731.487.775.487zm3.531-2.878c-.257-.528-.597-1.12-.597-1.12l1.308 1.372s-.95.193-1.976.581l1.264-.833h.001zM8.926 28.404c-.915.749-1.257.57-1.257.57l.801-.806-.358-.37-2.218 1.625c-1.916-.18-2.599-.246-2.599-.246l-.593.422s.014 1.198.059 1.218c.044.02 1.678.823 1.678.823l.845.043s-.42-.679-1.161-1.004c-.192-.084-.485-.1-.485-.1-.15-.137-.277-.523-.268-.713l.15-.18c.094.272.635.723.635.723.996.324 2.12 1.777 2.12 1.777l-1.243-.014c.06.686.383 1.7.383 1.7.272.376.857.422.857.422.22-.202.28-1.04.28-1.04.376.448.258.637.258.637s.7-.467.704-.697c.005-.23.12-2.356.12-2.356l2.22-1.807-.928-.627z"/></g><defs><clipPath id="a"><path fill="#fff" d="M0 0h40v40H0z"/></clipPath></defs></svg>