<svg width="40" height="40" viewBox="0 0 40 40" fill="none" xmlns="http://www.w3.org/2000/svg">
<g clip-path="url(#clip0_773_4877)">
<path d="M15.8203 34.2626L16.3829 33.0811L12.7002 31.3274L10.3838 36.1906L14.1353 37.9782L14.6979 36.7968L12.4406 35.7209L12.7709 35.0266L14.3348 35.7713L14.8635 34.6596L13.3006 33.9149L13.6317 33.2196L15.8203 34.2626Z" fill="#333333"/>
<path d="M19.4269 36.1614L19.3892 36.1546L18.3685 33.4828L16.7678 33.2107L15.8643 38.5213L17.495 38.7983L17.9085 36.3715L17.9463 36.3773L18.9747 39.051L20.5677 39.3222L21.4712 34.0115L19.8404 33.7336L19.4269 36.1614Z" fill="#333333"/>
<path d="M24.742 35.7295L24.9028 36.9497L25.5894 36.8596L25.6804 37.5462L25.5477 37.7185L24.3276 37.8793L24.1542 37.7466L23.8327 35.3053L23.9654 35.133L26.4822 34.8008L26.3118 33.5042L22.9931 33.9419L22.1216 34.9877L22.5845 38.4971L23.6971 39.2825L26.4435 38.9203L27.315 37.8735L26.9925 35.4322L24.742 35.7295Z" fill="#333333"/>
<path d="M30.9426 35.811L29.6915 33.3397L30.4459 32.9572L29.8551 31.7903L26.8687 33.3019L27.4594 34.4688L28.2147 34.0873L29.4659 36.5586L28.7105 36.9411L29.3012 38.108L32.2887 36.5964L31.698 35.4295L30.9426 35.811Z" fill="#333333"/>
<path d="M32.4348 29.0244L34.3668 30.5506L34.3426 30.5806L31.5091 30.1952L30.502 31.4696L34.7289 34.8095L35.7545 33.5109L33.8225 31.9848L33.8458 31.9538L36.6851 32.3334L37.6864 31.0658L33.4604 27.7258L32.4348 29.0244Z" fill="#333333"/>
<path d="M37.9441 26.6703L37.2013 26.4708L37.6497 24.7984L36.4605 24.4788L36.0121 26.1512L35.2684 25.9517L35.8969 23.6111L34.6332 23.2712L33.5767 27.2106L38.7788 28.607L39.8566 24.5931L38.5929 24.2541L37.9441 26.6703Z" fill="#333333"/>
<path d="M38.614 21.0614L37.8451 21.0972L37.7628 19.3677L36.533 19.4267L36.6153 21.1563L35.8474 21.1931L35.7321 18.7712L34.4248 18.8331L34.6185 22.9071L39.9998 22.6515L39.8022 18.501L38.4959 18.563L38.614 21.0614Z" fill="#333333"/>
<path d="M35.2444 13.3347L33.4626 14.0591L33.0259 15.2337L34.3593 18.5127L39.3494 16.4839L38.7258 14.951L37.2645 15.5455L37.0611 15.0468L38.1893 13.633L37.5511 12.0642L36.1751 13.787L35.2435 13.3347H35.2444ZM34.9481 16.4878L34.5714 15.561L34.6557 15.3606L35.4759 15.0275L35.6763 15.1117L36.053 16.0384L34.9481 16.4878Z" fill="#333333"/>
<path d="M5.84606 25.9488L5.45871 24.4323L1.72075 25.3871L1.42346 24.2231L0.223633 24.5301L1.20654 28.3736L2.4054 28.0676L2.1081 26.9036L5.84606 25.9488Z" fill="#333333"/>
<path d="M4.33061 23.2182L5.23798 22.304L5.33288 19.6855L4.49426 18.7084L1.00228 18.5815L0.0949015 19.4957L0 22.1142L0.838619 23.0913L4.33061 23.2182ZM1.30344 20.3043L1.45451 20.1639L3.92776 20.2539L4.06817 20.405L4.02847 21.4964L3.8774 21.6368L1.40415 21.5467L1.26374 21.3957L1.30344 20.3043Z" fill="#333333"/>
<path d="M6.41569 15.4265L2.15481 12.1863L1.6222 13.697L4.41889 15.7257L4.4063 15.7596L0.95595 15.5843L0.42334 17.095L5.77365 17.2461L6.41569 15.4265Z" fill="#333333"/>
<path d="M7.55317 13.2282L6.91888 12.3663L7.77106 11.1858L8.78883 11.517L9.72622 10.2184L4.63641 8.5625L3.44336 10.2146L6.61578 14.5258L7.55317 13.2272V13.2282ZM6.14999 11.3166L5.42661 10.3908L6.53347 10.7859L6.14999 11.3175V11.3166Z" fill="#333333"/>
<path d="M11.1296 9.25975L10.2348 8.06573L10.6425 7.76069L12.2074 8.45308L13.4886 7.49245L11.5819 6.64705L11.7717 5.68641L10.6803 4.22997L9.5008 4.11279L6.82129 6.12122L9.87653 10.1991L11.1287 9.26071H11.1296V9.25975ZM8.81616 6.17254L9.57343 5.60507L9.77679 5.63412L10.2784 6.30424L10.2494 6.50857L9.49209 7.07604L8.81519 6.17351H8.81616V6.17254Z" fill="#333333"/>
<path d="M12.856 3.70522L13.8399 6.13392L13.0981 6.43412L13.562 7.58165L16.4971 6.39248L16.0333 5.24591L15.2905 5.54611L14.3067 3.11741L15.0494 2.81624L14.5846 1.66968L11.6494 2.85885L12.1142 4.00542L12.856 3.70522Z" fill="#333333"/>
<path d="M17.3168 4.16416L19.0124 3.93755L19.1761 4.06248L19.239 4.53117L19.1141 4.69483L16.5886 5.03279L16.7522 6.25973L20.1077 5.81041L20.8669 4.90109L20.65 3.27809L19.6777 2.60022L17.9821 2.82682L17.8184 2.7019L17.7758 2.37652L17.9007 2.21383L20.2093 1.90492L20.0457 0.677979L16.9062 1.09729L16.147 2.00757L16.3445 3.48629L17.3168 4.16416Z" fill="#333333"/>
<path d="M25.1615 6.28101L25.3339 5.05504L23.1357 4.74613L23.0117 4.5815L23.3361 2.27481L23.5007 2.15086L25.699 2.46074L25.8723 1.23477L22.9168 0.819336L21.8574 1.5524L21.3906 4.86814L22.206 5.86461L25.1615 6.28101Z" fill="#333333"/>
<path d="M26.9538 7.02471L27.7605 5.27193L28.8518 5.77355L28.0452 7.52633L29.4668 8.18095L31.5972 3.55209L30.1747 2.89746L29.369 4.65023L28.2776 4.14764L29.0843 2.39487L27.6627 1.74121L25.5322 6.37008L26.9538 7.02471Z" fill="#333333"/>
<path d="M13.5118 29.497C13.2949 27.8314 11.5237 27.6358 11.3978 27.5728C9.76801 26.7662 10.1844 25.6622 10.1844 25.6622C10.6918 24.6474 10.7664 22.9101 10.7664 22.9101C10.7461 23.9046 10.6715 25.7639 10.6715 25.7639C11.0773 27.2242 12.2335 27.0828 12.2335 27.0828C14.3233 27.4886 14.7494 28.0977 14.7494 28.0977C15.0941 28.6865 15.5202 28.7872 15.5202 28.7872C14.9314 27.753 14.79 26.9811 14.79 26.9811C15.1958 27.0625 15.5405 27.7927 15.5405 27.7927C16.1293 29.619 16.4334 29.3585 16.4334 29.3585C18.2394 29.8892 19.5603 29.2656 20.3544 28.6652C21.4777 27.8149 22.3289 27.9796 22.3289 27.9796C23.2217 28.3243 22.9903 28.9344 23.1491 29.4563C23.2382 29.7507 23.5229 29.772 23.5229 29.772C23.5229 29.772 23.398 29.8398 23.2944 29.9919C23.2363 30.0771 23.1714 30.2223 23.1617 30.325C23.0697 31.3553 23.7098 31.673 23.7098 31.673C24.1398 32.0506 25.5836 32.0932 25.7056 31.8502C25.8277 31.6071 25.787 30.9167 25.787 30.9167C25.8073 30.3889 25.3202 29.8621 25.3202 29.8621C26.1724 29.8824 26.2131 31.0387 26.2131 31.0387C26.4561 29.6587 27.0856 29.7401 27.0856 29.7401C27.5727 29.1513 28.1402 29.6791 28.1402 29.6791C28.4239 30.3482 28.9517 30.6939 28.9517 30.6939C29.5801 30.877 29.9055 30.3899 29.9055 30.3899C30.0275 29.6597 29.7632 29.1319 29.7632 29.1319C29.8242 28.8279 30.0062 28.9286 30.0062 28.9286C30.1282 28.0764 30.655 28.0154 30.655 28.0154C30.4924 28.9489 30.29 29.1513 30.29 29.1513C30.5737 29.5164 30.8381 29.3576 30.8381 29.3576C31.2032 29.3004 31.2642 28.3601 31.1431 27.995C31.0221 27.63 31.1431 27.5283 31.1431 27.5283C31.3426 26.7526 30.7645 25.6545 30.5417 25.1635C30.0333 24.045 31.1431 23.4301 31.1431 23.4301C31.0095 22.9333 30.565 22.5876 30.228 22.391C30.0256 22.2719 29.8019 22.1935 29.5714 22.1518C28.9662 22.0424 28.5508 21.8846 28.3038 21.7674C28.1218 21.6812 27.96 21.5572 27.8283 21.4052C27.4739 20.9965 27.3093 20.6305 27.3093 20.6305C27.012 20.2296 26.4174 19.787 26.0252 19.5198C25.8083 19.3716 25.5207 19.3823 25.3154 19.5449C25.114 19.7047 24.9552 19.819 24.9552 19.819C24.9552 20.6586 24.591 21.2958 24.4003 21.5737C24.9251 20.9016 25.4016 20.6712 25.4016 20.6712C25.5033 22.2128 23.3525 23.4098 23.3525 23.4098C23.0077 23.8358 22.5003 24.3229 22.5003 24.3229C22.0539 25.0734 20.0455 24.6067 20.0455 24.6067C19.1323 24.2823 18.4631 24.4643 18.4631 24.4643C17.2459 25.0928 16.6164 24.4847 15.9473 23.9366C15.2781 23.3885 15.1968 22.1509 15.6635 21.2183C16.1303 20.2848 17.2662 18.9058 17.5906 18.0536C17.915 17.2015 18.7575 16.7347 18.7575 16.7347C20.3553 15.6017 22.1149 16.1866 22.1149 16.1866C24.0216 17.0998 23.6711 19.5227 23.6711 19.5227C23.214 19.266 22.9061 18.2764 22.9061 18.2764C22.7085 18.84 23.0058 19.3987 23.0058 19.3987C22.387 19.1014 22.2969 18.2357 22.2969 18.2357C22.0539 20.5075 23.0881 20.5482 23.0881 20.5482C24.5291 20.9743 24.8535 19.3309 24.8535 19.3309C24.9958 18.8438 25.4016 18.8438 25.4016 18.8438C26.2944 18.5804 26.6595 18.9862 26.6595 18.9862C26.5171 15.01 29.1347 13.8528 29.1347 13.8528C30.2706 13.5691 31.1431 14.9074 31.1431 14.9074C31.0521 13.7434 30.748 13.233 30.5979 13.0481C30.5582 12.9996 30.5098 12.957 30.4575 12.9231C28.9807 11.9528 28.4675 11.457 27.9165 10.4848C26.7079 8.35044 23.7592 7.14093 21.3934 7.02085C19.3443 6.91627 17.1761 7.30362 15.4011 8.36884C12.3778 10.1826 10.9523 11.8676 10.9523 11.8676C7.06526 15.8409 5.85575 19.8577 6.24504 22.7513C6.63336 25.6448 8.49072 27.1129 10.1747 28.6245C11.2942 29.6287 13.5108 29.496 13.5108 29.496L13.5118 29.497ZM28.8016 29.6103C28.8016 29.6103 28.2854 29.4312 28.6001 28.7804C28.6001 28.7804 28.7096 28.4792 29.4078 28.5112C29.4078 28.5112 28.6679 29.1164 28.8025 29.6103H28.8016ZM26.5036 20.8668C26.7922 20.6402 26.981 21.0072 27.0691 21.2464C27.0982 21.3268 27.0217 21.4052 26.9403 21.382C26.2712 21.1893 26.5036 20.8668 26.5036 20.8668ZM25.8635 24.2716C25.6843 21.9833 26.4649 22.0434 26.4649 22.0434C27.2512 21.6095 28.8413 23.7622 29.4078 25.0163C29.7738 25.8259 29.8571 26.5066 29.8697 26.8872C29.8736 27.0034 29.7399 27.0683 29.6479 26.9976C29.463 26.8533 29.2615 26.7865 29.0805 26.7613C28.7677 26.7168 28.5091 26.497 28.4074 26.1977C28.389 26.1445 28.3755 26.1125 28.3755 26.1125C28.1741 25.5964 27.8128 26.1212 27.501 27.1448C27.2996 27.8062 26.7699 28.3785 26.7699 28.3785C26.2315 28.6903 26.0204 28.6032 26.0204 28.6032C24.6075 28.0425 25.8635 24.2736 25.8635 24.2736V24.2716ZM21.9319 25.4821C22.8266 24.8226 23.0465 24.5098 23.0465 24.5098C23.0465 24.5098 22.7143 25.1025 22.4306 25.7009C22.1459 26.2994 22.5962 26.4301 22.5962 26.4301L23.7108 26.6674C23.7108 26.6674 22.6765 27.0751 21.7663 26.8572C21.1736 26.7148 21.6346 25.701 21.9319 25.4821Z" fill="#333333"/>
<path d="M31.8966 21.4913C31.7688 20.9791 31.8966 20.6982 31.8966 20.6982L31.5896 20.8677C30.6939 21.318 29.312 20.8677 29.312 20.8677C29.312 20.8677 29.4079 21.8758 30.1894 21.9872C30.598 22.0453 30.9273 22.176 31.1868 22.3271C30.6503 21.6608 31.6245 21.8003 31.8211 22.2031C31.945 22.4578 32.0128 22.6825 32.0448 22.8771L32.2549 22.3619C32.3314 21.8758 32.0245 22.0036 31.8966 21.4913Z" fill="#333333"/>
<path d="M27.315 30.0646C27.315 30.0646 26.5732 29.6811 26.6235 31.7796C26.6235 31.7796 27.3334 32.1669 27.7672 31.4426C27.8515 31.3031 27.8786 31.1356 27.8544 30.9749C27.8098 30.6824 27.682 30.2098 27.315 30.0656V30.0646Z" fill="#333333"/>
<path d="M31.3706 11.9035C31.4161 11.9035 33.4943 10.1372 33.4943 10.1372L35.9539 9.51644L36.6841 7.85953L35.6828 6.66455L33.9078 7.11194L32.8997 9.4225L30.5601 11.4106C30.5601 11.4106 31.3251 11.9025 31.3716 11.9025H31.3706V11.9035ZM34.9807 8.85987C34.7057 8.31758 34.3426 7.70944 34.3426 7.70944L35.7215 9.10875C35.7215 9.10875 34.7396 9.32567 33.6841 9.74497L34.9798 8.85987H34.9807Z" fill="#333333"/>
<path d="M7.5865 30.015L8.40285 29.1667L8.02615 28.7881L5.75529 30.5108C3.7672 30.3578 3.05835 30.3007 3.05835 30.3007L2.45117 30.7481C2.45117 30.7481 2.48603 31.9896 2.53252 32.0099C2.579 32.0302 4.28626 32.833 4.28626 32.833L5.16361 32.863C5.16361 32.863 4.71622 32.1668 3.94248 31.8433C3.74299 31.7601 3.43892 31.7494 3.43892 31.7494C3.28011 31.609 3.14357 31.21 3.14841 31.0144L3.30044 30.8246C3.40309 31.1045 3.97153 31.5635 3.97153 31.5635C5.00964 31.8821 6.19881 33.3685 6.19881 33.3685L4.91086 33.3753C4.98446 34.0851 5.33695 35.131 5.33695 35.131C5.62553 35.5145 6.2327 35.5522 6.2327 35.5522C6.45737 35.3382 6.50579 34.4696 6.50579 34.4696C6.90283 34.9276 6.78371 35.1242 6.78371 35.1242C6.78371 35.1242 7.50032 34.6284 7.50032 34.3902C7.50032 34.152 7.58457 31.946 7.58457 31.946L9.85349 30.0354L8.88123 29.403C7.94577 30.1942 7.58844 30.0141 7.58844 30.0141H7.5865V30.015Z" fill="#333333"/>
</g>
<defs>
<clipPath id="clip0_773_4877">
<rect width="40" height="40" fill="white"/>
</clipPath>
</defs>
</svg>
