<svg width="40" height="40" fill="none" xmlns="http://www.w3.org/2000/svg"><g clip-path="url(#a)" fill="#333"><path d="m15.82 34.263.563-1.182-3.683-1.754-2.316 4.864 3.751 1.787.563-1.181-2.257-1.076.33-.694 1.564.744.528-1.111-1.562-.745.33-.695 2.19 1.043ZM19.427 36.161l-.038-.006-1.02-2.672-1.601-.272-.904 5.31 1.631.277.413-2.427.038.006 1.029 2.674 1.593.271.903-5.31-1.63-.278-.414 2.427ZM24.742 35.73l.16 1.22.687-.09.091.686-.132.172-1.22.161-.174-.132-.321-2.442.132-.172 2.517-.332-.17-1.297-3.319.438-.871 1.046.462 3.51 1.113.785 2.747-.363.871-1.047-.323-2.44-2.25.297ZM30.943 35.811 29.69 33.34l.755-.383-.59-1.167-2.987 1.512.59 1.167.756-.382 1.25 2.472-.755.382.591 1.167 2.988-1.512-.591-1.166-.755.381ZM32.435 29.024l1.932 1.527-.024.03-2.834-.386-1.007 1.275 4.227 3.34 1.026-1.3-1.933-1.525.024-.031 2.84.38 1-1.268-4.226-3.34-1.025 1.298ZM37.944 26.67l-.743-.2.449-1.672-1.19-.32-.448 1.673-.744-.2.629-2.34-1.264-.34-1.056 3.94 5.202 1.396 1.078-4.014-1.264-.339-.649 2.416ZM38.614 21.061l-.769.036-.082-1.73-1.23.06.082 1.73-.768.036-.115-2.422-1.307.062.194 4.074 5.38-.256-.197-4.15-1.306.062.118 2.498ZM35.244 13.335l-1.781.724-.437 1.175 1.333 3.279 4.99-2.03-.623-1.532-1.462.595-.203-.5 1.128-1.413-.638-1.569-1.376 1.723-.931-.452Zm-.296 3.153-.377-.927.085-.2.82-.334.2.085.377.926-1.105.45ZM5.846 25.949l-.387-1.517-3.738.955-.298-1.164-1.2.307.984 3.844 1.198-.306-.297-1.164 3.738-.955ZM4.33 23.218l.908-.914.095-2.618-.839-.978-3.492-.127-.907.915L0 22.114l.839.977 3.492.127Zm-3.027-2.914.152-.14 2.473.09.14.151-.04 1.091-.15.14-2.474-.09-.14-.15.04-1.092ZM6.416 15.427l-4.261-3.24-.533 1.51 2.797 2.029-.013.034-3.45-.176-.533 1.511 5.35.151.643-1.82ZM7.553 13.228l-.634-.862.852-1.18 1.018.331.937-1.299-5.09-1.655-1.193 1.652 3.173 4.31.937-1.298v.001ZM6.15 11.317l-.723-.926 1.106.395-.383.532v-.001ZM11.13 9.26l-.895-1.194.408-.305 1.564.692 1.282-.96-1.907-.846.19-.96L10.68 4.23 9.5 4.113 6.822 6.12 9.877 10.2l1.252-.938V9.26ZM8.816 6.173l.757-.568.204.03.501.67-.029.204-.757.567-.677-.902h.001v-.001ZM12.856 3.705l.984 2.429-.742.3.464 1.148 2.935-1.19-.464-1.146-.743.3-.983-2.429.742-.3-.464-1.147-2.936 1.189.465 1.146.742-.3ZM17.317 4.164l1.695-.226.164.124.063.47-.125.163-2.525.338.163 1.227 3.356-.45.759-.909-.217-1.623-.972-.678-1.696.227-.164-.125-.042-.325.125-.163 2.308-.31-.163-1.226-3.14.42-.759.91.198 1.478.972.678ZM25.162 6.281l.172-1.226-2.198-.309-.124-.165.324-2.306.165-.124 2.198.31.173-1.226-2.955-.416-1.06.733-.466 3.316.815.997 2.956.416ZM26.954 7.025l.806-1.753 1.092.502-.807 1.752 1.422.655 2.13-4.629-1.422-.655-.806 1.753-1.091-.502.806-1.753-1.421-.654-2.13 4.63 1.42.654ZM13.512 29.497c-.217-1.666-1.988-1.861-2.114-1.924-1.63-.807-1.214-1.91-1.214-1.91.508-1.016.582-2.753.582-2.753-.02.995-.095 2.854-.095 2.854.406 1.46 1.563 1.319 1.563 1.319 2.09.406 2.515 1.015 2.515 1.015.345.588.771.69.771.69-.589-1.035-.73-1.807-.73-1.807.406.081.75.812.75.812.59 1.826.893 1.566.893 1.566 1.806.53 3.127-.093 3.921-.694 1.124-.85 1.975-.685 1.975-.685.893.344.661.954.82 1.476.09.295.374.316.374.316s-.125.068-.229.22a.843.843 0 0 0-.132.333c-.092 1.03.548 1.348.548 1.348.43.378 1.874.42 1.996.177.122-.243.081-.933.081-.933.02-.528-.467-1.055-.467-1.055.852.02.893 1.177.893 1.177.243-1.38.873-1.299.873-1.299.487-.589 1.054-.06 1.054-.06a2.45 2.45 0 0 0 .812 1.014c.628.183.953-.304.953-.304.122-.73-.142-1.258-.142-1.258.061-.304.243-.203.243-.203.122-.853.649-.914.649-.914-.163.934-.365 1.136-.365 1.136.284.365.548.207.548.207.365-.058.426-.998.305-1.363-.12-.365 0-.467 0-.467.2-.775-.378-1.873-.601-2.364-.509-1.119.601-1.734.601-1.734-.134-.497-.578-.842-.915-1.039a1.992 1.992 0 0 0-.657-.24 5.077 5.077 0 0 1-1.267-.384 1.453 1.453 0 0 1-.476-.362c-.354-.409-.519-.774-.519-.774-.297-.401-.892-.844-1.284-1.111a.599.599 0 0 0-.71.025c-.201.16-.36.274-.36.274 0 .84-.364 1.477-.555 1.755.525-.672 1.002-.903 1.002-.903.101 1.542-2.05 2.739-2.05 2.739-.344.426-.852.913-.852.913-.446.75-2.454.284-2.454.284-.914-.325-1.583-.143-1.583-.143-1.217.629-1.847.02-2.516-.527-.669-.549-.75-1.786-.283-2.719.466-.933 1.602-2.312 1.927-3.164.324-.852 1.166-1.32 1.166-1.32 1.598-1.132 3.358-.547 3.358-.547 1.907.913 1.556 3.336 1.556 3.336-.457-.257-.765-1.247-.765-1.247-.197.564.1 1.123.1 1.123-.619-.298-.71-1.163-.71-1.163-.242 2.271.792 2.312.792 2.312 1.441.426 1.765-1.217 1.765-1.217.143-.487.549-.487.549-.487.892-.264 1.258.142 1.258.142-.143-3.976 2.475-5.133 2.475-5.133 1.136-.284 2.008 1.054 2.008 1.054-.09-1.164-.395-1.674-.545-1.859a.614.614 0 0 0-.14-.125c-1.477-.97-1.99-1.466-2.541-2.438-1.21-2.135-4.158-3.344-6.524-3.464-2.049-.105-4.217.283-5.992 1.348-3.023 1.814-4.449 3.499-4.449 3.499-3.887 3.973-5.096 7.99-4.707 10.883.388 2.894 2.246 4.362 3.93 5.873 1.12 1.005 3.336.872 3.336.872v.001Zm15.29.113s-.517-.179-.202-.83c0 0 .11-.3.808-.269 0 0-.74.605-.606 1.1Zm-2.298-8.743c.288-.227.477.14.565.38.03.08-.047.158-.129.135-.669-.193-.436-.515-.436-.515Zm-.64 3.405c-.18-2.289.6-2.229.6-2.229.787-.433 2.377 1.72 2.944 2.973.366.81.45 1.49.462 1.871.004.116-.13.181-.222.11a1.177 1.177 0 0 0-.567-.236.838.838 0 0 1-.674-.563 1.523 1.523 0 0 0-.032-.085c-.2-.517-.562.008-.874 1.032-.201.661-.731 1.233-.731 1.233-.538.312-.75.225-.75.225-1.412-.56-.157-4.33-.157-4.33v-.001Zm-3.932 1.21c.895-.66 1.115-.972 1.115-.972s-.333.592-.616 1.19c-.285.6.165.73.165.73l1.115.237s-1.034.408-1.945.19c-.592-.142-.131-1.156.166-1.375Z"/><path d="M31.897 21.491c-.128-.512 0-.793 0-.793l-.307.17c-.896.45-2.278 0-2.278 0s.096 1.008.877 1.12c.409.057.738.188.998.34-.537-.667.438-.528.634-.125.124.255.192.48.224.674l.21-.515c.076-.486-.23-.358-.358-.87ZM27.315 30.065s-.742-.384-.692 1.715c0 0 .71.387 1.144-.337a.703.703 0 0 0 .087-.468c-.044-.293-.172-.765-.539-.91ZM31.37 11.903c.046 0 2.124-1.766 2.124-1.766l2.46-.62.73-1.657-1.001-1.195-1.775.447-1.008 2.31-2.34 1.989s.765.492.812.492h-.001Zm3.61-3.043c-.274-.542-.637-1.15-.637-1.15l1.378 1.399s-.981.217-2.037.636l1.296-.885ZM7.587 30.015l.816-.848-.377-.379-2.27 1.723c-1.989-.153-2.698-.21-2.698-.21l-.607.447s.035 1.242.082 1.262c.046.02 1.753.823 1.753.823l.878.03s-.448-.696-1.222-1.02c-.199-.083-.503-.094-.503-.094-.159-.14-.295-.539-.29-.735l.151-.19c.103.28.672.74.672.74 1.038.318 2.227 1.804 2.227 1.804l-1.288.007c.073.71.426 1.756.426 1.756.289.383.896.421.896.421.224-.214.273-1.082.273-1.082.397.458.278.654.278.654s.716-.496.716-.734.085-2.444.085-2.444l2.268-1.91-.972-.633c-.935.791-1.293.611-1.293.611h-.002v.001Z"/></g><defs><clipPath id="a"><path fill="#fff" d="M0 0h40v40H0z"/></clipPath></defs></svg>