<svg width="40" height="40" viewBox="0 0 40 40" fill="none" xmlns="http://www.w3.org/2000/svg">
<g clip-path="url(#clip0_773_5173)">
<path d="M12.3705 34.3869L12.3349 34.371L13.3311 32.0975L11.8032 31.4285L9.62598 36.4016L11.0463 37.0239L13.3563 35.3261L13.3918 35.3419L12.3966 37.6154L13.9235 38.2845L16.1017 33.3114L14.6804 32.689L12.3705 34.3869Z" fill="#333333"/>
<path d="M19.7282 35.9333L18.4573 35.7791L18.705 33.7383L17.0501 33.5374L16.395 38.9273L18.0509 39.1282L18.2985 37.0883L19.5684 37.2424L19.3208 39.2823L20.9766 39.4832L21.6307 34.0943L19.9758 33.8934L19.7282 35.9333Z" fill="#333333"/>
<path d="M29.6622 32.2441L27.955 32.7609L27.4747 35.054L27.4008 35.0774L26.8047 33.1104L25.2086 33.5935L25.8048 35.5605L25.731 35.5829L24.0583 33.942L22.3511 34.4597L24.6003 36.5333L23.777 39.7001L25.4843 39.1834L26.0384 36.8678L26.187 36.822L26.7832 38.789L28.3792 38.3059L27.783 36.3389L27.9316 36.294L29.6781 37.9125L31.3853 37.3948L28.9427 35.2176L29.6622 32.2441Z" fill="#333333"/>
<path d="M34.0514 33.2291L33.4936 32.6889L34.7074 31.4358L33.8159 30.5724L32.6021 31.8264L32.0452 31.2873L33.744 29.5314L32.7965 28.6147L29.938 31.5685L33.8384 35.3437L36.752 32.3348L35.8045 31.4172L34.0514 33.2291Z" fill="#333333"/>
<path d="M34.0942 25.2544L36.0444 25.9038L35.6398 27.1186L33.6896 26.4682L33.1626 28.0503L38.3133 29.7668L38.8403 28.1848L36.891 27.5354L37.2957 26.3206L39.2449 26.971L39.7719 25.3889L34.6213 23.6724L34.0942 25.2544Z" fill="#333333"/>
<path d="M38.6088 20.9307L37.8332 20.9653L37.7557 19.2226L36.5156 19.2777L36.5941 21.0214L35.8195 21.0559L35.7102 18.6152L34.3926 18.674L34.5767 22.7809L40.0002 22.538L39.8124 18.3535L38.4957 18.4124L38.6088 20.9307Z" fill="#333333"/>
<path d="M33.475 13.4394L33.0171 14.6159L34.3393 18.0126L39.3984 16.0437L38.7939 14.4897L37.4567 15.0102L36.739 13.1675L35.6064 12.6096L33.474 13.4394H33.475ZM35.8345 14.4766L36.2279 15.4887L34.9626 15.9811L34.5692 14.9691L34.658 14.7682L35.6335 14.3888L35.8345 14.4766Z" fill="#333333"/>
<path d="M5.84217 24.2014L5.56651 22.5568L1.51194 23.238L1.30075 21.9756L0 22.1942L0.699902 26.3628L2.00065 26.1442L1.78853 24.8827L5.84217 24.2014Z" fill="#333333"/>
<path d="M4.47604 21.027L5.54505 20.1673L5.95714 17.406L5.18529 16.2716L1.50356 15.7222L0.434553 16.5819L0.0224609 19.3422L0.794315 20.4766L4.47604 21.0261V21.027ZM1.6185 17.5808L1.79511 17.45L4.40315 17.8396L4.53398 18.0162L4.36204 19.1665L4.18543 19.2974L1.57738 18.9077L1.44656 18.7311L1.6185 17.5808Z" fill="#333333"/>
<path d="M8.03086 12.5741L7.68418 11.1902L6.56191 10.5754L5.70128 10.8557L5.56578 10.295L4.51173 9.71753L3.15865 10.1698L1.5 13.1965L6.26101 15.8055L8.03086 12.5751V12.5741ZM4.10337 12.7218L3.45674 12.3676L3.94078 11.4836L4.15103 11.422L4.49117 11.6079L4.54911 11.9051L4.1015 12.7218H4.10337ZM5.19201 13.318L5.71343 12.3658L6.10029 12.2237L6.44043 12.4097L6.5021 12.6199L5.90592 13.7086L5.19201 13.317V13.318Z" fill="#333333"/>
<path d="M9.74652 10.5285L9.28957 9.4838L10.452 8.45685L11.4323 9.03994L12.7106 7.91019L7.80847 4.99658L6.18066 6.4347L8.46726 11.6592L9.74652 10.5295V10.5285ZM9.25874 7.75134L8.73545 8.21389L8.20094 7.08227L9.25874 7.75227V7.75134Z" fill="#333333"/>
<path d="M14.5148 7.24202L13.9673 5.91603L15.795 5.161L16.3295 4.01723L15.4558 1.90258L14.27 1.46899L10.9004 2.86039L12.973 7.87838L14.5148 7.24202ZM13.9495 3.02765L14.1523 3.11175L14.5522 4.07984L14.4681 4.28262L13.4645 4.69751L12.9468 3.44255L13.9495 3.02765Z" fill="#333333"/>
<path d="M19.2953 5.92076L20.5671 3.35102L20.6054 3.34822L20.7652 5.82544L22.4294 5.71798L22.0799 0.300049L20.5316 0.400035L19.2598 2.96977L19.2215 2.97164L19.0607 0.495349L17.3965 0.60281L17.7469 6.02074L19.2953 5.92076Z" fill="#333333"/>
<path d="M27.7053 8.655L29.2565 9.26613L30.1666 6.95711L29.6246 6.74405L31.1319 2.91936L29.5807 2.30823L28.0735 6.13292L27.3876 5.86287L28.8948 2.03817L27.3437 1.42704L25.8364 5.2508L25.1514 4.98075L26.6578 1.15699L25.1066 0.544922L23.1162 5.59655L28.1314 7.57291L27.7053 8.655Z" fill="#333333"/>
<path d="M22.8268 28.6278C22.9128 28.9119 23.1875 28.9325 23.1875 28.9325C23.1875 28.9325 23.067 28.9979 22.967 29.1446C22.9109 29.2268 22.8483 29.367 22.839 29.466C22.7502 30.4603 23.3678 30.7668 23.3678 30.7668C23.7827 31.1312 25.176 31.1723 25.2937 30.9378C25.4115 30.7032 25.3722 30.037 25.3722 30.037C25.3919 29.5277 24.9218 29.0194 24.9218 29.0194C25.7442 29.039 25.7834 30.1547 25.7834 30.1547C26.0179 28.8231 26.6253 28.9016 26.6253 28.9016C27.0954 28.3335 27.643 28.8428 27.643 28.8428C27.9167 29.4885 28.426 29.8221 28.426 29.8221C29.0325 29.9987 29.3464 29.5286 29.3464 29.5286C29.4642 28.8241 29.2091 28.3148 29.2091 28.3148C29.268 28.0214 29.4436 28.1186 29.4436 28.1186C29.5614 27.2962 30.0697 27.2374 30.0697 27.2374C29.9127 28.1382 29.7174 28.3335 29.7174 28.3335C29.9912 28.6858 30.2463 28.5325 30.2463 28.5325C30.5986 28.4774 30.6575 27.57 30.5407 27.2177C30.4239 26.8655 30.5407 26.7673 30.5407 26.7673C30.7332 26.0189 30.1753 24.9592 29.9604 24.4854C29.4698 23.4061 30.5407 22.8128 30.5407 22.8128C30.4117 22.3334 29.9828 21.9998 29.6576 21.8101C29.4623 21.6952 29.2465 21.6195 29.0241 21.5793C28.44 21.4737 28.0392 21.3214 27.8009 21.2083C27.6252 21.1251 27.4691 21.0055 27.3421 20.8588C27 20.4645 26.8412 20.1113 26.8412 20.1113C26.5543 19.7244 25.9806 19.2974 25.6021 19.0395C25.3928 18.8965 25.1153 18.9068 24.9172 19.0638C24.7228 19.2179 24.5695 19.3282 24.5695 19.3282C24.5695 20.1384 24.2182 20.7532 24.0341 21.0214C24.5406 20.3729 25.0003 20.1505 25.0003 20.1505C25.0984 21.6382 23.023 22.7931 23.023 22.7931C22.6904 23.2043 22.2007 23.6743 22.2007 23.6743C21.7699 24.3985 19.8319 23.9481 19.8319 23.9481C18.9507 23.6351 18.305 23.8107 18.305 23.8107C17.1304 24.4172 16.523 23.8304 15.8773 23.3015C15.2316 22.7726 15.1531 21.5784 15.6035 20.6785C16.0539 19.7777 17.15 18.447 17.4631 17.6247C17.7761 16.8024 18.5891 16.352 18.5891 16.352C20.1309 15.2587 21.8288 15.8231 21.8288 15.8231C23.6687 16.7043 23.3305 19.0423 23.3305 19.0423C22.8894 18.7946 22.5923 17.8396 22.5923 17.8396C22.4016 18.3835 22.6885 18.9226 22.6885 18.9226C22.0914 18.6358 22.0045 17.8004 22.0045 17.8004C21.7699 19.9926 22.7679 20.0318 22.7679 20.0318C24.1584 20.443 24.4714 18.8572 24.4714 18.8572C24.6088 18.3872 25.0003 18.3872 25.0003 18.3872C25.8619 18.133 26.2142 18.5246 26.2142 18.5246C26.0768 14.6877 28.6026 13.5711 28.6026 13.5711C29.6987 13.2973 30.5407 14.5887 30.5407 14.5887C30.4528 13.4655 30.1594 12.973 30.0146 12.7945C29.9763 12.7478 29.9295 12.7067 29.8791 12.674C28.4541 11.7377 27.9588 11.2592 27.4271 10.3211C26.2609 8.26153 23.4155 7.0944 21.1326 6.97853C19.1554 6.87761 17.0631 7.25139 15.3503 8.27928C12.4329 10.0295 11.0574 11.6554 11.0574 11.6554C7.30655 15.4895 6.13942 19.3656 6.51507 22.1577C6.88978 24.9498 8.68206 26.3665 10.3071 27.8251C11.3873 28.7942 13.5262 28.6661 13.5262 28.6661C13.3169 27.0589 11.6078 26.8701 11.4863 26.8094C9.91366 26.031 10.3155 24.9657 10.3155 24.9657C10.8051 23.9864 10.8771 22.31 10.8771 22.31C10.8575 23.2697 10.7855 25.0638 10.7855 25.0638C11.177 26.473 12.2928 26.3366 12.2928 26.3366C14.3093 26.7281 14.7205 27.3159 14.7205 27.3159C15.0531 27.884 15.4643 27.9812 15.4643 27.9812C14.8961 26.9832 14.7597 26.2384 14.7597 26.2384C15.1512 26.3169 15.4839 27.0215 15.4839 27.0215C16.0521 28.7839 16.3455 28.5325 16.3455 28.5325C18.0882 29.0446 19.3628 28.4428 20.1291 27.8635C21.213 27.043 22.0344 27.2019 22.0344 27.2019C22.896 27.5345 22.6726 28.1232 22.8259 28.6269L22.8268 28.6278ZM28.2812 28.7764C28.2812 28.7764 27.7831 28.6035 28.0868 27.9756C28.0868 27.9756 28.1924 27.685 28.8661 27.7158C28.8661 27.7158 28.1522 28.2998 28.2821 28.7764H28.2812ZM26.0637 20.3393C26.3422 20.1206 26.5244 20.4748 26.6095 20.7056C26.6375 20.7831 26.5637 20.8588 26.4852 20.8364C25.8395 20.6504 26.0637 20.3393 26.0637 20.3393ZM25.4461 23.6248C25.2732 21.4167 26.0264 21.4746 26.0264 21.4746C26.7851 21.056 28.3195 23.1333 28.8661 24.3434C29.2194 25.1246 29.2997 25.7815 29.3119 26.1487C29.3156 26.2609 29.1867 26.3235 29.0979 26.2553C28.9194 26.116 28.725 26.0516 28.5503 26.0273C28.2485 25.9843 27.999 25.7722 27.9009 25.4834C27.8831 25.432 27.87 25.4012 27.87 25.4012C27.6757 24.9031 27.3271 25.4096 27.0262 26.3973C26.8319 27.0355 26.3207 27.5878 26.3207 27.5878C25.8012 27.8887 25.5974 27.8046 25.5974 27.8046C24.2341 27.2635 25.4461 23.6267 25.4461 23.6267V23.6248ZM21.4924 26.1198C20.9205 25.9824 21.3653 25.004 21.6522 24.7929C22.5156 24.1565 22.7278 23.8547 22.7278 23.8547C22.7278 23.8547 22.4072 24.4265 22.1334 25.004C21.8587 25.5815 22.2932 25.7077 22.2932 25.7077L23.3688 25.9366C23.3688 25.9366 22.3708 26.33 21.4924 26.1198Z" fill="#333333"/>
<path d="M31.2675 20.9421C31.1441 20.4477 31.2675 20.1768 31.2675 20.1768L30.9713 20.3403C30.1069 20.7748 28.7734 20.3403 28.7734 20.3403C28.7734 20.3403 28.8659 21.313 29.62 21.4205C29.9854 21.4728 30.2844 21.585 30.5265 21.7177C30.0648 21.1112 30.9759 21.2476 31.1628 21.6298C31.2955 21.9017 31.3619 22.1382 31.3871 22.3391L31.6132 21.7831C31.687 21.314 31.3908 21.4373 31.2675 20.943V20.9421Z" fill="#333333"/>
<path d="M26.8478 29.2147C26.8478 29.2147 26.132 28.8447 26.1806 30.8697C26.1806 30.8697 26.8655 31.2434 27.2842 30.5445C27.3655 30.4099 27.3916 30.2482 27.3683 30.0931C27.3253 29.8109 27.2019 29.3549 26.8478 29.2157V29.2147Z" fill="#333333"/>
<path d="M30.9069 11.8805C30.9509 11.8805 32.9842 10.2107 32.9842 10.2107L35.3671 9.65095L36.0978 8.06426L35.1503 6.89526L33.4299 7.29895L32.4207 9.51265L30.1313 11.3928C30.1313 11.3928 30.8621 11.8796 30.906 11.8805H30.9069ZM34.4382 9.00244C34.1812 8.47448 33.8411 7.88204 33.8411 7.88204L35.1493 9.25381C35.1493 9.25381 34.1981 9.44724 33.173 9.83504L34.4373 9.00151H34.4382V9.00244Z" fill="#333333"/>
<path d="M8.92602 28.4045C8.0112 29.153 7.66919 28.9736 7.66919 28.9736L8.47001 28.1681L8.11212 27.7971L5.89374 29.4231C3.97812 29.2436 3.29503 29.1773 3.29503 29.1773L2.70166 29.5987C2.70166 29.5987 2.71568 30.7967 2.76053 30.8173C2.80538 30.8378 4.4388 31.6396 4.4388 31.6396L5.28448 31.6826C5.28448 31.6826 4.86397 31.0041 4.12296 30.679C3.93139 30.5949 3.63798 30.5799 3.63798 30.5799C3.48753 30.4416 3.36138 30.0557 3.36979 29.866L3.5193 29.6856C3.61368 29.9576 4.15473 30.4089 4.15473 30.4089C5.15085 30.7332 6.27499 32.1862 6.27499 32.1862L5.03217 32.1722C5.09198 32.8581 5.4153 33.8729 5.4153 33.8729C5.68722 34.2476 6.27219 34.2943 6.27219 34.2943C6.49178 34.0916 6.55252 33.2543 6.55252 33.2543C6.92817 33.7019 6.81043 33.8907 6.81043 33.8907C6.81043 33.8907 7.5094 33.4244 7.51407 33.1945C7.51874 32.9646 7.63461 30.8378 7.63461 30.8378L9.85393 29.0306L8.92602 28.4045Z" fill="#333333"/>
</g>
<defs>
<clipPath id="clip0_773_5173">
<rect width="40" height="40" fill="white"/>
</clipPath>
</defs>
</svg>
